<mxfile host="Electron" modified="2023-05-23T08:29:47.231Z" agent="Mozilla/5.0 (Windows NT 10.0; Win64; x64) AppleWebKit/537.36 (KHTML, like Gecko) draw.io/21.2.8 Chrome/112.0.5615.165 Electron/24.2.0 Safari/537.36" etag="xYiOTPDFzkdOJV5Ro7bZ" version="21.2.8" type="device">
  <diagram id="C5RBs43oDa-KdzZeNtuy" name="Page-1">
    <mxGraphModel dx="4232" dy="2674" grid="1" gridSize="10" guides="1" tooltips="1" connect="1" arrows="1" fold="1" page="1" pageScale="1" pageWidth="827" pageHeight="1169" math="0" shadow="0">
      <root>
        <mxCell id="WIyWlLk6GJQsqaUBKTNV-0" />
        <mxCell id="WIyWlLk6GJQsqaUBKTNV-1" parent="WIyWlLk6GJQsqaUBKTNV-0" />
        <mxCell id="yPFTxuTIG4OnFBLkoGiK-46" style="edgeStyle=orthogonalEdgeStyle;rounded=0;orthogonalLoop=1;jettySize=auto;html=1;exitX=0.5;exitY=0;exitDx=0;exitDy=0;entryX=1;entryY=0.5;entryDx=0;entryDy=0;endSize=20;endArrow=diamondThin;endFill=0;" edge="1" parent="WIyWlLk6GJQsqaUBKTNV-1" source="yPFTxuTIG4OnFBLkoGiK-0" target="yPFTxuTIG4OnFBLkoGiK-43">
          <mxGeometry relative="1" as="geometry" />
        </mxCell>
        <mxCell id="yPFTxuTIG4OnFBLkoGiK-0" value="interface IDish" style="swimlane;fontStyle=2;align=center;verticalAlign=top;childLayout=stackLayout;horizontal=1;startSize=26;horizontalStack=0;resizeParent=1;resizeLast=0;collapsible=1;marginBottom=0;rounded=0;shadow=0;strokeWidth=1;" vertex="1" parent="WIyWlLk6GJQsqaUBKTNV-1">
          <mxGeometry x="720" width="280" height="170" as="geometry">
            <mxRectangle x="230" y="140" width="160" height="26" as="alternateBounds" />
          </mxGeometry>
        </mxCell>
        <mxCell id="yPFTxuTIG4OnFBLkoGiK-1" value="+&lt;&lt;get&gt;&gt; &lt;&lt;set&gt;&gt; Name :  String" style="text;align=left;verticalAlign=top;spacingLeft=4;spacingRight=4;overflow=hidden;rotatable=0;points=[[0,0.5],[1,0.5]];portConstraint=eastwest;" vertex="1" parent="yPFTxuTIG4OnFBLkoGiK-0">
          <mxGeometry y="26" width="280" height="26" as="geometry" />
        </mxCell>
        <mxCell id="yPFTxuTIG4OnFBLkoGiK-2" value="+&lt;&lt;get&gt;&gt; -&lt;&lt;set&gt;&gt; CookingTimeInSec :  int" style="text;align=left;verticalAlign=top;spacingLeft=4;spacingRight=4;overflow=hidden;rotatable=0;points=[[0,0.5],[1,0.5]];portConstraint=eastwest;" vertex="1" parent="yPFTxuTIG4OnFBLkoGiK-0">
          <mxGeometry y="52" width="280" height="26" as="geometry" />
        </mxCell>
        <mxCell id="yPFTxuTIG4OnFBLkoGiK-4" value="+&lt;&lt;get&gt;&gt; -&lt;&lt;set&gt;&gt; IsReady :  bool" style="text;align=left;verticalAlign=top;spacingLeft=4;spacingRight=4;overflow=hidden;rotatable=0;points=[[0,0.5],[1,0.5]];portConstraint=eastwest;" vertex="1" parent="yPFTxuTIG4OnFBLkoGiK-0">
          <mxGeometry y="78" width="280" height="26" as="geometry" />
        </mxCell>
        <mxCell id="yPFTxuTIG4OnFBLkoGiK-3" value="" style="line;html=1;strokeWidth=1;align=left;verticalAlign=middle;spacingTop=-1;spacingLeft=3;spacingRight=3;rotatable=0;labelPosition=right;points=[];portConstraint=eastwest;" vertex="1" parent="yPFTxuTIG4OnFBLkoGiK-0">
          <mxGeometry y="104" width="280" height="8" as="geometry" />
        </mxCell>
        <mxCell id="yPFTxuTIG4OnFBLkoGiK-5" value="+ CookAsync() : Task&lt;IDish&gt;" style="text;align=left;verticalAlign=top;spacingLeft=4;spacingRight=4;overflow=hidden;rotatable=0;points=[[0,0.5],[1,0.5]];portConstraint=eastwest;" vertex="1" parent="yPFTxuTIG4OnFBLkoGiK-0">
          <mxGeometry y="112" width="280" height="26" as="geometry" />
        </mxCell>
        <mxCell id="yPFTxuTIG4OnFBLkoGiK-30" value="" style="edgeStyle=orthogonalEdgeStyle;rounded=0;orthogonalLoop=1;jettySize=auto;html=1;endArrow=block;endFill=0;endSize=12;dashed=1;" edge="1" parent="WIyWlLk6GJQsqaUBKTNV-1" source="yPFTxuTIG4OnFBLkoGiK-6">
          <mxGeometry relative="1" as="geometry">
            <mxPoint x="860" y="170" as="targetPoint" />
            <Array as="points">
              <mxPoint x="860" y="210" />
              <mxPoint x="860" y="210" />
            </Array>
          </mxGeometry>
        </mxCell>
        <mxCell id="yPFTxuTIG4OnFBLkoGiK-6" value="class Dish" style="swimlane;fontStyle=2;align=center;verticalAlign=top;childLayout=stackLayout;horizontal=1;startSize=26;horizontalStack=0;resizeParent=1;resizeLast=0;collapsible=1;marginBottom=0;rounded=0;shadow=0;strokeWidth=1;" vertex="1" parent="WIyWlLk6GJQsqaUBKTNV-1">
          <mxGeometry x="720" y="200" width="280" height="180" as="geometry">
            <mxRectangle x="230" y="140" width="160" height="26" as="alternateBounds" />
          </mxGeometry>
        </mxCell>
        <mxCell id="yPFTxuTIG4OnFBLkoGiK-7" value="+&lt;&lt;get&gt;&gt; &lt;&lt;set&gt;&gt; Name :  String" style="text;align=left;verticalAlign=top;spacingLeft=4;spacingRight=4;overflow=hidden;rotatable=0;points=[[0,0.5],[1,0.5]];portConstraint=eastwest;" vertex="1" parent="yPFTxuTIG4OnFBLkoGiK-6">
          <mxGeometry y="26" width="280" height="26" as="geometry" />
        </mxCell>
        <mxCell id="yPFTxuTIG4OnFBLkoGiK-8" value="+&lt;&lt;get&gt;&gt; -&lt;&lt;set&gt;&gt; CookingTimeInSec :  int" style="text;align=left;verticalAlign=top;spacingLeft=4;spacingRight=4;overflow=hidden;rotatable=0;points=[[0,0.5],[1,0.5]];portConstraint=eastwest;" vertex="1" parent="yPFTxuTIG4OnFBLkoGiK-6">
          <mxGeometry y="52" width="280" height="26" as="geometry" />
        </mxCell>
        <mxCell id="yPFTxuTIG4OnFBLkoGiK-9" value="+&lt;&lt;get&gt;&gt; -&lt;&lt;set&gt;&gt; IsReady :  bool" style="text;align=left;verticalAlign=top;spacingLeft=4;spacingRight=4;overflow=hidden;rotatable=0;points=[[0,0.5],[1,0.5]];portConstraint=eastwest;" vertex="1" parent="yPFTxuTIG4OnFBLkoGiK-6">
          <mxGeometry y="78" width="280" height="26" as="geometry" />
        </mxCell>
        <mxCell id="yPFTxuTIG4OnFBLkoGiK-11" value="" style="line;html=1;strokeWidth=1;align=left;verticalAlign=middle;spacingTop=-1;spacingLeft=3;spacingRight=3;rotatable=0;labelPosition=right;points=[];portConstraint=eastwest;" vertex="1" parent="yPFTxuTIG4OnFBLkoGiK-6">
          <mxGeometry y="104" width="280" height="26" as="geometry" />
        </mxCell>
        <mxCell id="yPFTxuTIG4OnFBLkoGiK-10" value="+ CookAsync() : Task&lt;IDish&gt;" style="text;align=left;verticalAlign=top;spacingLeft=4;spacingRight=4;overflow=hidden;rotatable=0;points=[[0,0.5],[1,0.5]];portConstraint=eastwest;" vertex="1" parent="yPFTxuTIG4OnFBLkoGiK-6">
          <mxGeometry y="130" width="280" height="26" as="geometry" />
        </mxCell>
        <mxCell id="yPFTxuTIG4OnFBLkoGiK-31" style="edgeStyle=orthogonalEdgeStyle;rounded=0;orthogonalLoop=1;jettySize=auto;html=1;exitX=0.5;exitY=0;exitDx=0;exitDy=0;entryX=0.002;entryY=0.091;entryDx=0;entryDy=0;entryPerimeter=0;endArrow=block;endFill=0;endSize=12;" edge="1" parent="WIyWlLk6GJQsqaUBKTNV-1" source="yPFTxuTIG4OnFBLkoGiK-12" target="yPFTxuTIG4OnFBLkoGiK-6">
          <mxGeometry relative="1" as="geometry" />
        </mxCell>
        <mxCell id="yPFTxuTIG4OnFBLkoGiK-12" value="class Drink" style="swimlane;fontStyle=2;align=center;verticalAlign=top;childLayout=stackLayout;horizontal=1;startSize=26;horizontalStack=0;resizeParent=1;resizeLast=0;collapsible=1;marginBottom=0;rounded=0;shadow=0;strokeWidth=1;" vertex="1" parent="WIyWlLk6GJQsqaUBKTNV-1">
          <mxGeometry x="400" y="420" width="280" height="90" as="geometry">
            <mxRectangle x="230" y="140" width="160" height="26" as="alternateBounds" />
          </mxGeometry>
        </mxCell>
        <mxCell id="yPFTxuTIG4OnFBLkoGiK-16" value="+ CookAsync() : Task&lt;IDish&gt;" style="text;align=left;verticalAlign=top;spacingLeft=4;spacingRight=4;overflow=hidden;rotatable=0;points=[[0,0.5],[1,0.5]];portConstraint=eastwest;" vertex="1" parent="yPFTxuTIG4OnFBLkoGiK-12">
          <mxGeometry y="26" width="280" height="26" as="geometry" />
        </mxCell>
        <mxCell id="yPFTxuTIG4OnFBLkoGiK-17" value="" style="line;html=1;strokeWidth=1;align=left;verticalAlign=middle;spacingTop=-1;spacingLeft=3;spacingRight=3;rotatable=0;labelPosition=right;points=[];portConstraint=eastwest;" vertex="1" parent="yPFTxuTIG4OnFBLkoGiK-12">
          <mxGeometry y="52" width="280" height="8" as="geometry" />
        </mxCell>
        <mxCell id="yPFTxuTIG4OnFBLkoGiK-33" style="edgeStyle=orthogonalEdgeStyle;rounded=0;orthogonalLoop=1;jettySize=auto;html=1;exitX=0.5;exitY=0;exitDx=0;exitDy=0;entryX=0.5;entryY=1;entryDx=0;entryDy=0;endSize=12;endArrow=block;endFill=0;" edge="1" parent="WIyWlLk6GJQsqaUBKTNV-1" source="yPFTxuTIG4OnFBLkoGiK-18" target="yPFTxuTIG4OnFBLkoGiK-6">
          <mxGeometry relative="1" as="geometry" />
        </mxCell>
        <mxCell id="yPFTxuTIG4OnFBLkoGiK-18" value="class Pizza" style="swimlane;fontStyle=2;align=center;verticalAlign=top;childLayout=stackLayout;horizontal=1;startSize=26;horizontalStack=0;resizeParent=1;resizeLast=0;collapsible=1;marginBottom=0;rounded=0;shadow=0;strokeWidth=1;" vertex="1" parent="WIyWlLk6GJQsqaUBKTNV-1">
          <mxGeometry x="720" y="420" width="280" height="90" as="geometry">
            <mxRectangle x="230" y="140" width="160" height="26" as="alternateBounds" />
          </mxGeometry>
        </mxCell>
        <mxCell id="yPFTxuTIG4OnFBLkoGiK-22" value="+ CookAsync() : Task&lt;IDish&gt;" style="text;align=left;verticalAlign=top;spacingLeft=4;spacingRight=4;overflow=hidden;rotatable=0;points=[[0,0.5],[1,0.5]];portConstraint=eastwest;" vertex="1" parent="yPFTxuTIG4OnFBLkoGiK-18">
          <mxGeometry y="26" width="280" height="26" as="geometry" />
        </mxCell>
        <mxCell id="yPFTxuTIG4OnFBLkoGiK-23" value="" style="line;html=1;strokeWidth=1;align=left;verticalAlign=middle;spacingTop=-1;spacingLeft=3;spacingRight=3;rotatable=0;labelPosition=right;points=[];portConstraint=eastwest;" vertex="1" parent="yPFTxuTIG4OnFBLkoGiK-18">
          <mxGeometry y="52" width="280" height="8" as="geometry" />
        </mxCell>
        <mxCell id="yPFTxuTIG4OnFBLkoGiK-32" style="edgeStyle=orthogonalEdgeStyle;rounded=0;orthogonalLoop=1;jettySize=auto;html=1;exitX=0.5;exitY=0;exitDx=0;exitDy=0;entryX=0.999;entryY=0.109;entryDx=0;entryDy=0;entryPerimeter=0;endSize=12;endArrow=block;endFill=0;" edge="1" parent="WIyWlLk6GJQsqaUBKTNV-1" source="yPFTxuTIG4OnFBLkoGiK-24" target="yPFTxuTIG4OnFBLkoGiK-6">
          <mxGeometry relative="1" as="geometry" />
        </mxCell>
        <mxCell id="yPFTxuTIG4OnFBLkoGiK-24" value="class Dessert" style="swimlane;fontStyle=2;align=center;verticalAlign=top;childLayout=stackLayout;horizontal=1;startSize=26;horizontalStack=0;resizeParent=1;resizeLast=0;collapsible=1;marginBottom=0;rounded=0;shadow=0;strokeWidth=1;" vertex="1" parent="WIyWlLk6GJQsqaUBKTNV-1">
          <mxGeometry x="1050" y="420" width="280" height="90" as="geometry">
            <mxRectangle x="230" y="140" width="160" height="26" as="alternateBounds" />
          </mxGeometry>
        </mxCell>
        <mxCell id="yPFTxuTIG4OnFBLkoGiK-28" value="+ CookAsync() : Task&lt;IDish&gt;" style="text;align=left;verticalAlign=top;spacingLeft=4;spacingRight=4;overflow=hidden;rotatable=0;points=[[0,0.5],[1,0.5]];portConstraint=eastwest;" vertex="1" parent="yPFTxuTIG4OnFBLkoGiK-24">
          <mxGeometry y="26" width="280" height="26" as="geometry" />
        </mxCell>
        <mxCell id="yPFTxuTIG4OnFBLkoGiK-29" value="" style="line;html=1;strokeWidth=1;align=left;verticalAlign=middle;spacingTop=-1;spacingLeft=3;spacingRight=3;rotatable=0;labelPosition=right;points=[];portConstraint=eastwest;" vertex="1" parent="yPFTxuTIG4OnFBLkoGiK-24">
          <mxGeometry y="52" width="280" height="8" as="geometry" />
        </mxCell>
        <mxCell id="yPFTxuTIG4OnFBLkoGiK-34" value="" style="shape=image;verticalLabelPosition=bottom;labelBackgroundColor=default;verticalAlign=top;aspect=fixed;imageAspect=0;image=https://www.sdl-forum.org/Tools/TIMe/HTML/elb/uml/uml_t01-5.gif;" vertex="1" parent="WIyWlLk6GJQsqaUBKTNV-1">
          <mxGeometry x="-950" y="-870" width="328" height="123" as="geometry" />
        </mxCell>
        <mxCell id="yPFTxuTIG4OnFBLkoGiK-143" style="edgeStyle=orthogonalEdgeStyle;rounded=0;orthogonalLoop=1;jettySize=auto;html=1;exitX=0.5;exitY=0;exitDx=0;exitDy=0;entryX=0.5;entryY=0;entryDx=0;entryDy=0;endArrow=diamondThin;endFill=0;startArrow=none;startFill=0;startSize=19;endSize=20;" edge="1" parent="WIyWlLk6GJQsqaUBKTNV-1" source="yPFTxuTIG4OnFBLkoGiK-36" target="yPFTxuTIG4OnFBLkoGiK-94">
          <mxGeometry relative="1" as="geometry">
            <Array as="points">
              <mxPoint x="500" y="-220" />
              <mxPoint x="730" y="-220" />
              <mxPoint x="730" y="-890" />
              <mxPoint x="540" y="-890" />
            </Array>
          </mxGeometry>
        </mxCell>
        <mxCell id="yPFTxuTIG4OnFBLkoGiK-36" value="class Order" style="swimlane;fontStyle=2;align=center;verticalAlign=top;childLayout=stackLayout;horizontal=1;startSize=26;horizontalStack=0;resizeParent=1;resizeLast=0;collapsible=1;marginBottom=0;rounded=0;shadow=0;strokeWidth=1;" vertex="1" parent="WIyWlLk6GJQsqaUBKTNV-1">
          <mxGeometry x="360" y="-140" width="280" height="216" as="geometry">
            <mxRectangle x="230" y="140" width="160" height="26" as="alternateBounds" />
          </mxGeometry>
        </mxCell>
        <mxCell id="yPFTxuTIG4OnFBLkoGiK-37" value="+&lt;&lt;get&gt;&gt; &lt;&lt;set&gt;&gt; Id :  Guid" style="text;align=left;verticalAlign=top;spacingLeft=4;spacingRight=4;overflow=hidden;rotatable=0;points=[[0,0.5],[1,0.5]];portConstraint=eastwest;" vertex="1" parent="yPFTxuTIG4OnFBLkoGiK-36">
          <mxGeometry y="26" width="280" height="26" as="geometry" />
        </mxCell>
        <mxCell id="yPFTxuTIG4OnFBLkoGiK-38" value="+&lt;&lt;get&gt;&gt; -&lt;&lt;set&gt;&gt; StartTime:  DateTime " style="text;align=left;verticalAlign=top;spacingLeft=4;spacingRight=4;overflow=hidden;rotatable=0;points=[[0,0.5],[1,0.5]];portConstraint=eastwest;" vertex="1" parent="yPFTxuTIG4OnFBLkoGiK-36">
          <mxGeometry y="52" width="280" height="26" as="geometry" />
        </mxCell>
        <mxCell id="yPFTxuTIG4OnFBLkoGiK-39" value="+&lt;&lt;get&gt;&gt; -&lt;&lt;set&gt;&gt; EndTime :  DateTime " style="text;align=left;verticalAlign=top;spacingLeft=4;spacingRight=4;overflow=hidden;rotatable=0;points=[[0,0.5],[1,0.5]];portConstraint=eastwest;" vertex="1" parent="yPFTxuTIG4OnFBLkoGiK-36">
          <mxGeometry y="78" width="280" height="26" as="geometry" />
        </mxCell>
        <mxCell id="yPFTxuTIG4OnFBLkoGiK-43" value="-  _dishes:  IList&lt;IDish&gt;" style="text;align=left;verticalAlign=top;spacingLeft=4;spacingRight=4;overflow=hidden;rotatable=0;points=[[0,0.5],[1,0.5]];portConstraint=eastwest;" vertex="1" parent="yPFTxuTIG4OnFBLkoGiK-36">
          <mxGeometry y="104" width="280" height="26" as="geometry" />
        </mxCell>
        <mxCell id="yPFTxuTIG4OnFBLkoGiK-41" value="" style="line;html=1;strokeWidth=1;align=left;verticalAlign=middle;spacingTop=-1;spacingLeft=3;spacingRight=3;rotatable=0;labelPosition=right;points=[];portConstraint=eastwest;" vertex="1" parent="yPFTxuTIG4OnFBLkoGiK-36">
          <mxGeometry y="130" width="280" height="8" as="geometry" />
        </mxCell>
        <mxCell id="yPFTxuTIG4OnFBLkoGiK-40" value="+ AddToOrder(IDish dish) : void " style="text;align=left;verticalAlign=top;spacingLeft=4;spacingRight=4;overflow=hidden;rotatable=0;points=[[0,0.5],[1,0.5]];portConstraint=eastwest;" vertex="1" parent="yPFTxuTIG4OnFBLkoGiK-36">
          <mxGeometry y="138" width="280" height="26" as="geometry" />
        </mxCell>
        <mxCell id="yPFTxuTIG4OnFBLkoGiK-44" value="+ RemoveFromOrder(IDish dish) : void " style="text;align=left;verticalAlign=top;spacingLeft=4;spacingRight=4;overflow=hidden;rotatable=0;points=[[0,0.5],[1,0.5]];portConstraint=eastwest;" vertex="1" parent="yPFTxuTIG4OnFBLkoGiK-36">
          <mxGeometry y="164" width="280" height="26" as="geometry" />
        </mxCell>
        <mxCell id="yPFTxuTIG4OnFBLkoGiK-45" value="+ TakeFirstFromOrder&lt;T&gt;() : T where T : IDish " style="text;align=left;verticalAlign=top;spacingLeft=4;spacingRight=4;overflow=hidden;rotatable=0;points=[[0,0.5],[1,0.5]];portConstraint=eastwest;" vertex="1" parent="yPFTxuTIG4OnFBLkoGiK-36">
          <mxGeometry y="190" width="280" height="26" as="geometry" />
        </mxCell>
        <mxCell id="yPFTxuTIG4OnFBLkoGiK-47" value="interface ICook&lt;T&gt; where T : IDish" style="swimlane;fontStyle=2;align=center;verticalAlign=top;childLayout=stackLayout;horizontal=1;startSize=26;horizontalStack=0;resizeParent=1;resizeLast=0;collapsible=1;marginBottom=0;rounded=0;shadow=0;strokeWidth=1;" vertex="1" parent="WIyWlLk6GJQsqaUBKTNV-1">
          <mxGeometry x="-390" y="-20" width="280" height="110" as="geometry">
            <mxRectangle x="230" y="140" width="160" height="26" as="alternateBounds" />
          </mxGeometry>
        </mxCell>
        <mxCell id="yPFTxuTIG4OnFBLkoGiK-48" value="+&lt;&lt;get&gt;&gt; &lt;&lt;set&gt;&gt; Name :  String" style="text;align=left;verticalAlign=top;spacingLeft=4;spacingRight=4;overflow=hidden;rotatable=0;points=[[0,0.5],[1,0.5]];portConstraint=eastwest;" vertex="1" parent="yPFTxuTIG4OnFBLkoGiK-47">
          <mxGeometry y="26" width="280" height="26" as="geometry" />
        </mxCell>
        <mxCell id="yPFTxuTIG4OnFBLkoGiK-51" value="" style="line;html=1;strokeWidth=1;align=left;verticalAlign=middle;spacingTop=-1;spacingLeft=3;spacingRight=3;rotatable=0;labelPosition=right;points=[];portConstraint=eastwest;" vertex="1" parent="yPFTxuTIG4OnFBLkoGiK-47">
          <mxGeometry y="52" width="280" height="8" as="geometry" />
        </mxCell>
        <mxCell id="yPFTxuTIG4OnFBLkoGiK-52" value="+ CookingAsync(T dish) : Task&lt;T&gt;" style="text;align=left;verticalAlign=top;spacingLeft=4;spacingRight=4;overflow=hidden;rotatable=0;points=[[0,0.5],[1,0.5]];portConstraint=eastwest;" vertex="1" parent="yPFTxuTIG4OnFBLkoGiK-47">
          <mxGeometry y="60" width="280" height="26" as="geometry" />
        </mxCell>
        <mxCell id="yPFTxuTIG4OnFBLkoGiK-73" style="edgeStyle=orthogonalEdgeStyle;rounded=0;orthogonalLoop=1;jettySize=auto;html=1;exitX=0.5;exitY=0;exitDx=0;exitDy=0;entryX=0.003;entryY=0.133;entryDx=0;entryDy=0;entryPerimeter=0;dashed=1;strokeWidth=1;endArrow=block;endFill=0;endSize=15;" edge="1" parent="WIyWlLk6GJQsqaUBKTNV-1" source="yPFTxuTIG4OnFBLkoGiK-53" target="yPFTxuTIG4OnFBLkoGiK-47">
          <mxGeometry relative="1" as="geometry" />
        </mxCell>
        <mxCell id="yPFTxuTIG4OnFBLkoGiK-53" value="class DrinkCook " style="swimlane;fontStyle=2;align=center;verticalAlign=top;childLayout=stackLayout;horizontal=1;startSize=26;horizontalStack=0;resizeParent=1;resizeLast=0;collapsible=1;marginBottom=0;rounded=0;shadow=0;strokeWidth=1;" vertex="1" parent="WIyWlLk6GJQsqaUBKTNV-1">
          <mxGeometry x="-850" y="170" width="280" height="90" as="geometry">
            <mxRectangle x="230" y="140" width="160" height="26" as="alternateBounds" />
          </mxGeometry>
        </mxCell>
        <mxCell id="yPFTxuTIG4OnFBLkoGiK-60" value="+&lt;&lt;get&gt;&gt; &lt;&lt;set&gt;&gt; Name :  String" style="text;align=left;verticalAlign=top;spacingLeft=4;spacingRight=4;overflow=hidden;rotatable=0;points=[[0,0.5],[1,0.5]];portConstraint=eastwest;" vertex="1" parent="yPFTxuTIG4OnFBLkoGiK-53">
          <mxGeometry y="26" width="280" height="26" as="geometry" />
        </mxCell>
        <mxCell id="yPFTxuTIG4OnFBLkoGiK-55" value="" style="line;html=1;strokeWidth=1;align=left;verticalAlign=middle;spacingTop=-1;spacingLeft=3;spacingRight=3;rotatable=0;labelPosition=right;points=[];portConstraint=eastwest;" vertex="1" parent="yPFTxuTIG4OnFBLkoGiK-53">
          <mxGeometry y="52" width="280" height="8" as="geometry" />
        </mxCell>
        <mxCell id="yPFTxuTIG4OnFBLkoGiK-59" value="+ CookingAsync(Drink  dish) : Task&lt;Drink &gt;" style="text;align=left;verticalAlign=top;spacingLeft=4;spacingRight=4;overflow=hidden;rotatable=0;points=[[0,0.5],[1,0.5]];portConstraint=eastwest;" vertex="1" parent="yPFTxuTIG4OnFBLkoGiK-53">
          <mxGeometry y="60" width="280" height="26" as="geometry" />
        </mxCell>
        <mxCell id="yPFTxuTIG4OnFBLkoGiK-74" style="edgeStyle=orthogonalEdgeStyle;rounded=0;orthogonalLoop=1;jettySize=auto;html=1;exitX=0.5;exitY=0;exitDx=0;exitDy=0;entryX=0.25;entryY=1;entryDx=0;entryDy=0;endArrow=block;endFill=0;strokeWidth=1;endSize=15;dashed=1;" edge="1" parent="WIyWlLk6GJQsqaUBKTNV-1" source="yPFTxuTIG4OnFBLkoGiK-61" target="yPFTxuTIG4OnFBLkoGiK-47">
          <mxGeometry relative="1" as="geometry" />
        </mxCell>
        <mxCell id="yPFTxuTIG4OnFBLkoGiK-61" value="class UniversalCook " style="swimlane;fontStyle=2;align=center;verticalAlign=top;childLayout=stackLayout;horizontal=1;startSize=26;horizontalStack=0;resizeParent=1;resizeLast=0;collapsible=1;marginBottom=0;rounded=0;shadow=0;strokeWidth=1;" vertex="1" parent="WIyWlLk6GJQsqaUBKTNV-1">
          <mxGeometry x="-530" y="170" width="280" height="90" as="geometry">
            <mxRectangle x="230" y="140" width="160" height="26" as="alternateBounds" />
          </mxGeometry>
        </mxCell>
        <mxCell id="yPFTxuTIG4OnFBLkoGiK-62" value="+&lt;&lt;get&gt;&gt; &lt;&lt;set&gt;&gt; Name :  String" style="text;align=left;verticalAlign=top;spacingLeft=4;spacingRight=4;overflow=hidden;rotatable=0;points=[[0,0.5],[1,0.5]];portConstraint=eastwest;" vertex="1" parent="yPFTxuTIG4OnFBLkoGiK-61">
          <mxGeometry y="26" width="280" height="26" as="geometry" />
        </mxCell>
        <mxCell id="yPFTxuTIG4OnFBLkoGiK-63" value="" style="line;html=1;strokeWidth=1;align=left;verticalAlign=middle;spacingTop=-1;spacingLeft=3;spacingRight=3;rotatable=0;labelPosition=right;points=[];portConstraint=eastwest;" vertex="1" parent="yPFTxuTIG4OnFBLkoGiK-61">
          <mxGeometry y="52" width="280" height="8" as="geometry" />
        </mxCell>
        <mxCell id="yPFTxuTIG4OnFBLkoGiK-64" value="+ CookingAsync(T dish) : Task&lt;T&gt;" style="text;align=left;verticalAlign=top;spacingLeft=4;spacingRight=4;overflow=hidden;rotatable=0;points=[[0,0.5],[1,0.5]];portConstraint=eastwest;" vertex="1" parent="yPFTxuTIG4OnFBLkoGiK-61">
          <mxGeometry y="60" width="280" height="26" as="geometry" />
        </mxCell>
        <mxCell id="yPFTxuTIG4OnFBLkoGiK-75" style="edgeStyle=orthogonalEdgeStyle;rounded=0;orthogonalLoop=1;jettySize=auto;html=1;exitX=0.5;exitY=0;exitDx=0;exitDy=0;entryX=0.75;entryY=1;entryDx=0;entryDy=0;endSize=15;endArrow=block;endFill=0;dashed=1;" edge="1" parent="WIyWlLk6GJQsqaUBKTNV-1" source="yPFTxuTIG4OnFBLkoGiK-65" target="yPFTxuTIG4OnFBLkoGiK-47">
          <mxGeometry relative="1" as="geometry" />
        </mxCell>
        <mxCell id="yPFTxuTIG4OnFBLkoGiK-65" value="class PizzaCook " style="swimlane;fontStyle=2;align=center;verticalAlign=top;childLayout=stackLayout;horizontal=1;startSize=26;horizontalStack=0;resizeParent=1;resizeLast=0;collapsible=1;marginBottom=0;rounded=0;shadow=0;strokeWidth=1;" vertex="1" parent="WIyWlLk6GJQsqaUBKTNV-1">
          <mxGeometry x="-200" y="170" width="280" height="90" as="geometry">
            <mxRectangle x="230" y="140" width="160" height="26" as="alternateBounds" />
          </mxGeometry>
        </mxCell>
        <mxCell id="yPFTxuTIG4OnFBLkoGiK-66" value="+&lt;&lt;get&gt;&gt; &lt;&lt;set&gt;&gt; Name :  String" style="text;align=left;verticalAlign=top;spacingLeft=4;spacingRight=4;overflow=hidden;rotatable=0;points=[[0,0.5],[1,0.5]];portConstraint=eastwest;" vertex="1" parent="yPFTxuTIG4OnFBLkoGiK-65">
          <mxGeometry y="26" width="280" height="26" as="geometry" />
        </mxCell>
        <mxCell id="yPFTxuTIG4OnFBLkoGiK-67" value="" style="line;html=1;strokeWidth=1;align=left;verticalAlign=middle;spacingTop=-1;spacingLeft=3;spacingRight=3;rotatable=0;labelPosition=right;points=[];portConstraint=eastwest;" vertex="1" parent="yPFTxuTIG4OnFBLkoGiK-65">
          <mxGeometry y="52" width="280" height="8" as="geometry" />
        </mxCell>
        <mxCell id="yPFTxuTIG4OnFBLkoGiK-68" value="+ CookingAsync(Pizza dish) : Task&lt;Pizza&gt;" style="text;align=left;verticalAlign=top;spacingLeft=4;spacingRight=4;overflow=hidden;rotatable=0;points=[[0,0.5],[1,0.5]];portConstraint=eastwest;" vertex="1" parent="yPFTxuTIG4OnFBLkoGiK-65">
          <mxGeometry y="60" width="280" height="26" as="geometry" />
        </mxCell>
        <mxCell id="yPFTxuTIG4OnFBLkoGiK-76" style="edgeStyle=orthogonalEdgeStyle;rounded=0;orthogonalLoop=1;jettySize=auto;html=1;exitX=0.5;exitY=0;exitDx=0;exitDy=0;entryX=1.003;entryY=0.112;entryDx=0;entryDy=0;entryPerimeter=0;endSize=15;endArrow=block;endFill=0;dashed=1;" edge="1" parent="WIyWlLk6GJQsqaUBKTNV-1" source="yPFTxuTIG4OnFBLkoGiK-69" target="yPFTxuTIG4OnFBLkoGiK-47">
          <mxGeometry relative="1" as="geometry" />
        </mxCell>
        <mxCell id="yPFTxuTIG4OnFBLkoGiK-69" value="class DessertCook" style="swimlane;fontStyle=2;align=center;verticalAlign=top;childLayout=stackLayout;horizontal=1;startSize=26;horizontalStack=0;resizeParent=1;resizeLast=0;collapsible=1;marginBottom=0;rounded=0;shadow=0;strokeWidth=1;" vertex="1" parent="WIyWlLk6GJQsqaUBKTNV-1">
          <mxGeometry x="130" y="170" width="280" height="90" as="geometry">
            <mxRectangle x="230" y="140" width="160" height="26" as="alternateBounds" />
          </mxGeometry>
        </mxCell>
        <mxCell id="yPFTxuTIG4OnFBLkoGiK-70" value="+&lt;&lt;get&gt;&gt; &lt;&lt;set&gt;&gt; Name :  String" style="text;align=left;verticalAlign=top;spacingLeft=4;spacingRight=4;overflow=hidden;rotatable=0;points=[[0,0.5],[1,0.5]];portConstraint=eastwest;" vertex="1" parent="yPFTxuTIG4OnFBLkoGiK-69">
          <mxGeometry y="26" width="280" height="26" as="geometry" />
        </mxCell>
        <mxCell id="yPFTxuTIG4OnFBLkoGiK-71" value="" style="line;html=1;strokeWidth=1;align=left;verticalAlign=middle;spacingTop=-1;spacingLeft=3;spacingRight=3;rotatable=0;labelPosition=right;points=[];portConstraint=eastwest;" vertex="1" parent="yPFTxuTIG4OnFBLkoGiK-69">
          <mxGeometry y="52" width="280" height="8" as="geometry" />
        </mxCell>
        <mxCell id="yPFTxuTIG4OnFBLkoGiK-72" value="+ CookingAsync(Dessert dish) : Task&lt;Dessert &gt;" style="text;align=left;verticalAlign=top;spacingLeft=4;spacingRight=4;overflow=hidden;rotatable=0;points=[[0,0.5],[1,0.5]];portConstraint=eastwest;" vertex="1" parent="yPFTxuTIG4OnFBLkoGiK-69">
          <mxGeometry y="60" width="280" height="26" as="geometry" />
        </mxCell>
        <mxCell id="yPFTxuTIG4OnFBLkoGiK-77" value="interface IHandler" style="swimlane;fontStyle=2;align=center;verticalAlign=top;childLayout=stackLayout;horizontal=1;startSize=26;horizontalStack=0;resizeParent=1;resizeLast=0;collapsible=1;marginBottom=0;rounded=0;shadow=0;strokeWidth=1;" vertex="1" parent="WIyWlLk6GJQsqaUBKTNV-1">
          <mxGeometry x="-40" y="-840" width="300" height="110" as="geometry">
            <mxRectangle x="230" y="140" width="160" height="26" as="alternateBounds" />
          </mxGeometry>
        </mxCell>
        <mxCell id="yPFTxuTIG4OnFBLkoGiK-79" value="" style="line;html=1;strokeWidth=1;align=left;verticalAlign=middle;spacingTop=-1;spacingLeft=3;spacingRight=3;rotatable=0;labelPosition=right;points=[];portConstraint=eastwest;" vertex="1" parent="yPFTxuTIG4OnFBLkoGiK-77">
          <mxGeometry y="26" width="300" height="8" as="geometry" />
        </mxCell>
        <mxCell id="yPFTxuTIG4OnFBLkoGiK-80" value="+ SetNextHandler(next : IHandler) : IHandler " style="text;align=left;verticalAlign=top;spacingLeft=4;spacingRight=4;overflow=hidden;rotatable=0;points=[[0,0.5],[1,0.5]];portConstraint=eastwest;" vertex="1" parent="yPFTxuTIG4OnFBLkoGiK-77">
          <mxGeometry y="34" width="300" height="26" as="geometry" />
        </mxCell>
        <mxCell id="yPFTxuTIG4OnFBLkoGiK-81" value="+ Handle(request : IRequest ) : IResponse " style="text;align=left;verticalAlign=top;spacingLeft=4;spacingRight=4;overflow=hidden;rotatable=0;points=[[0,0.5],[1,0.5]];portConstraint=eastwest;" vertex="1" parent="yPFTxuTIG4OnFBLkoGiK-77">
          <mxGeometry y="60" width="300" height="26" as="geometry" />
        </mxCell>
        <mxCell id="yPFTxuTIG4OnFBLkoGiK-86" value="interface IRequest" style="swimlane;fontStyle=2;align=center;verticalAlign=top;childLayout=stackLayout;horizontal=1;startSize=26;horizontalStack=0;resizeParent=1;resizeLast=0;collapsible=1;marginBottom=0;rounded=0;shadow=0;strokeWidth=1;" vertex="1" parent="WIyWlLk6GJQsqaUBKTNV-1">
          <mxGeometry x="-510" y="-810" width="300" height="100" as="geometry">
            <mxRectangle x="230" y="140" width="160" height="26" as="alternateBounds" />
          </mxGeometry>
        </mxCell>
        <mxCell id="yPFTxuTIG4OnFBLkoGiK-87" value="" style="line;html=1;strokeWidth=1;align=left;verticalAlign=middle;spacingTop=-1;spacingLeft=3;spacingRight=3;rotatable=0;labelPosition=right;points=[];portConstraint=eastwest;" vertex="1" parent="yPFTxuTIG4OnFBLkoGiK-86">
          <mxGeometry y="26" width="300" height="8" as="geometry" />
        </mxCell>
        <mxCell id="yPFTxuTIG4OnFBLkoGiK-92" value="+&lt;&lt;get&gt;&gt; Id :  Guid" style="text;align=left;verticalAlign=top;spacingLeft=4;spacingRight=4;overflow=hidden;rotatable=0;points=[[0,0.5],[1,0.5]];portConstraint=eastwest;" vertex="1" parent="yPFTxuTIG4OnFBLkoGiK-86">
          <mxGeometry y="34" width="300" height="26" as="geometry" />
        </mxCell>
        <mxCell id="yPFTxuTIG4OnFBLkoGiK-93" value="+&lt;&lt;get&gt;&gt; Order :  Order" style="text;align=left;verticalAlign=top;spacingLeft=4;spacingRight=4;overflow=hidden;rotatable=0;points=[[0,0.5],[1,0.5]];portConstraint=eastwest;" vertex="1" parent="yPFTxuTIG4OnFBLkoGiK-86">
          <mxGeometry y="60" width="300" height="26" as="geometry" />
        </mxCell>
        <mxCell id="yPFTxuTIG4OnFBLkoGiK-94" value="interface IResponse" style="swimlane;fontStyle=2;align=center;verticalAlign=top;childLayout=stackLayout;horizontal=1;startSize=26;horizontalStack=0;resizeParent=1;resizeLast=0;collapsible=1;marginBottom=0;rounded=0;shadow=0;strokeWidth=1;" vertex="1" parent="WIyWlLk6GJQsqaUBKTNV-1">
          <mxGeometry x="390" y="-841" width="300" height="112" as="geometry">
            <mxRectangle x="230" y="140" width="160" height="26" as="alternateBounds" />
          </mxGeometry>
        </mxCell>
        <mxCell id="yPFTxuTIG4OnFBLkoGiK-95" value="" style="line;html=1;strokeWidth=1;align=left;verticalAlign=middle;spacingTop=-1;spacingLeft=3;spacingRight=3;rotatable=0;labelPosition=right;points=[];portConstraint=eastwest;" vertex="1" parent="yPFTxuTIG4OnFBLkoGiK-94">
          <mxGeometry y="26" width="300" height="8" as="geometry" />
        </mxCell>
        <mxCell id="yPFTxuTIG4OnFBLkoGiK-96" value="+&lt;&lt;get&gt;&gt; Id :  Guid" style="text;align=left;verticalAlign=top;spacingLeft=4;spacingRight=4;overflow=hidden;rotatable=0;points=[[0,0.5],[1,0.5]];portConstraint=eastwest;" vertex="1" parent="yPFTxuTIG4OnFBLkoGiK-94">
          <mxGeometry y="34" width="300" height="26" as="geometry" />
        </mxCell>
        <mxCell id="yPFTxuTIG4OnFBLkoGiK-97" value="+&lt;&lt;get&gt;&gt; Order :  Order" style="text;align=left;verticalAlign=top;spacingLeft=4;spacingRight=4;overflow=hidden;rotatable=0;points=[[0,0.5],[1,0.5]];portConstraint=eastwest;" vertex="1" parent="yPFTxuTIG4OnFBLkoGiK-94">
          <mxGeometry y="60" width="300" height="26" as="geometry" />
        </mxCell>
        <mxCell id="yPFTxuTIG4OnFBLkoGiK-98" value="+&lt;&lt;get&gt;&gt; Info :  OrderExecutionInfo " style="text;align=left;verticalAlign=top;spacingLeft=4;spacingRight=4;overflow=hidden;rotatable=0;points=[[0,0.5],[1,0.5]];portConstraint=eastwest;" vertex="1" parent="yPFTxuTIG4OnFBLkoGiK-94">
          <mxGeometry y="86" width="300" height="26" as="geometry" />
        </mxCell>
        <mxCell id="yPFTxuTIG4OnFBLkoGiK-137" style="edgeStyle=orthogonalEdgeStyle;rounded=0;orthogonalLoop=1;jettySize=auto;html=1;exitX=0.5;exitY=0;exitDx=0;exitDy=0;entryX=0.5;entryY=1;entryDx=0;entryDy=0;endSize=15;dashed=1;endArrow=block;endFill=0;" edge="1" parent="WIyWlLk6GJQsqaUBKTNV-1" source="yPFTxuTIG4OnFBLkoGiK-99" target="yPFTxuTIG4OnFBLkoGiK-86">
          <mxGeometry relative="1" as="geometry" />
        </mxCell>
        <mxCell id="yPFTxuTIG4OnFBLkoGiK-99" value="class OrderRequest" style="swimlane;fontStyle=2;align=center;verticalAlign=top;childLayout=stackLayout;horizontal=1;startSize=26;horizontalStack=0;resizeParent=1;resizeLast=0;collapsible=1;marginBottom=0;rounded=0;shadow=0;strokeWidth=1;" vertex="1" parent="WIyWlLk6GJQsqaUBKTNV-1">
          <mxGeometry x="-510" y="-660" width="300" height="100" as="geometry">
            <mxRectangle x="230" y="140" width="160" height="26" as="alternateBounds" />
          </mxGeometry>
        </mxCell>
        <mxCell id="yPFTxuTIG4OnFBLkoGiK-100" value="" style="line;html=1;strokeWidth=1;align=left;verticalAlign=middle;spacingTop=-1;spacingLeft=3;spacingRight=3;rotatable=0;labelPosition=right;points=[];portConstraint=eastwest;" vertex="1" parent="yPFTxuTIG4OnFBLkoGiK-99">
          <mxGeometry y="26" width="300" height="8" as="geometry" />
        </mxCell>
        <mxCell id="yPFTxuTIG4OnFBLkoGiK-101" value="+&lt;&lt;get&gt;&gt; Id :  Guid" style="text;align=left;verticalAlign=top;spacingLeft=4;spacingRight=4;overflow=hidden;rotatable=0;points=[[0,0.5],[1,0.5]];portConstraint=eastwest;" vertex="1" parent="yPFTxuTIG4OnFBLkoGiK-99">
          <mxGeometry y="34" width="300" height="26" as="geometry" />
        </mxCell>
        <mxCell id="yPFTxuTIG4OnFBLkoGiK-102" value="+&lt;&lt;get&gt;&gt; Order :  Order" style="text;align=left;verticalAlign=top;spacingLeft=4;spacingRight=4;overflow=hidden;rotatable=0;points=[[0,0.5],[1,0.5]];portConstraint=eastwest;" vertex="1" parent="yPFTxuTIG4OnFBLkoGiK-99">
          <mxGeometry y="60" width="300" height="26" as="geometry" />
        </mxCell>
        <mxCell id="yPFTxuTIG4OnFBLkoGiK-140" style="edgeStyle=orthogonalEdgeStyle;rounded=0;orthogonalLoop=1;jettySize=auto;html=1;exitX=0.5;exitY=0;exitDx=0;exitDy=0;entryX=0.483;entryY=0.984;entryDx=0;entryDy=0;entryPerimeter=0;endSize=15;endArrow=block;endFill=0;dashed=1;" edge="1" parent="WIyWlLk6GJQsqaUBKTNV-1" source="yPFTxuTIG4OnFBLkoGiK-103" target="yPFTxuTIG4OnFBLkoGiK-98">
          <mxGeometry relative="1" as="geometry">
            <Array as="points">
              <mxPoint x="535" y="-666" />
            </Array>
          </mxGeometry>
        </mxCell>
        <mxCell id="yPFTxuTIG4OnFBLkoGiK-142" style="edgeStyle=orthogonalEdgeStyle;rounded=0;orthogonalLoop=1;jettySize=auto;html=1;exitX=0;exitY=0.25;exitDx=0;exitDy=0;entryX=1;entryY=0.5;entryDx=0;entryDy=0;endArrow=diamondThin;endFill=0;endSize=20;" edge="1" parent="WIyWlLk6GJQsqaUBKTNV-1" source="yPFTxuTIG4OnFBLkoGiK-103" target="yPFTxuTIG4OnFBLkoGiK-114">
          <mxGeometry relative="1" as="geometry" />
        </mxCell>
        <mxCell id="yPFTxuTIG4OnFBLkoGiK-103" value="class OrderResponse" style="swimlane;fontStyle=2;align=center;verticalAlign=top;childLayout=stackLayout;horizontal=1;startSize=26;horizontalStack=0;resizeParent=1;resizeLast=0;collapsible=1;marginBottom=0;rounded=0;shadow=0;strokeWidth=1;" vertex="1" parent="WIyWlLk6GJQsqaUBKTNV-1">
          <mxGeometry x="390" y="-666" width="300" height="112" as="geometry">
            <mxRectangle x="230" y="140" width="160" height="26" as="alternateBounds" />
          </mxGeometry>
        </mxCell>
        <mxCell id="yPFTxuTIG4OnFBLkoGiK-104" value="" style="line;html=1;strokeWidth=1;align=left;verticalAlign=middle;spacingTop=-1;spacingLeft=3;spacingRight=3;rotatable=0;labelPosition=right;points=[];portConstraint=eastwest;" vertex="1" parent="yPFTxuTIG4OnFBLkoGiK-103">
          <mxGeometry y="26" width="300" height="8" as="geometry" />
        </mxCell>
        <mxCell id="yPFTxuTIG4OnFBLkoGiK-105" value="+&lt;&lt;get&gt;&gt; Id :  Guid" style="text;align=left;verticalAlign=top;spacingLeft=4;spacingRight=4;overflow=hidden;rotatable=0;points=[[0,0.5],[1,0.5]];portConstraint=eastwest;" vertex="1" parent="yPFTxuTIG4OnFBLkoGiK-103">
          <mxGeometry y="34" width="300" height="26" as="geometry" />
        </mxCell>
        <mxCell id="yPFTxuTIG4OnFBLkoGiK-106" value="+&lt;&lt;get&gt;&gt; Order :  Order" style="text;align=left;verticalAlign=top;spacingLeft=4;spacingRight=4;overflow=hidden;rotatable=0;points=[[0,0.5],[1,0.5]];portConstraint=eastwest;" vertex="1" parent="yPFTxuTIG4OnFBLkoGiK-103">
          <mxGeometry y="60" width="300" height="26" as="geometry" />
        </mxCell>
        <mxCell id="yPFTxuTIG4OnFBLkoGiK-107" value="+&lt;&lt;get&gt;&gt; Info :  OrderExecutionInfo " style="text;align=left;verticalAlign=top;spacingLeft=4;spacingRight=4;overflow=hidden;rotatable=0;points=[[0,0.5],[1,0.5]];portConstraint=eastwest;" vertex="1" parent="yPFTxuTIG4OnFBLkoGiK-103">
          <mxGeometry y="86" width="300" height="26" as="geometry" />
        </mxCell>
        <mxCell id="yPFTxuTIG4OnFBLkoGiK-115" style="edgeStyle=orthogonalEdgeStyle;rounded=0;orthogonalLoop=1;jettySize=auto;html=1;exitX=0.5;exitY=0;exitDx=0;exitDy=0;entryX=0.5;entryY=1;entryDx=0;entryDy=0;dashed=1;endArrow=block;endFill=0;endSize=15;" edge="1" parent="WIyWlLk6GJQsqaUBKTNV-1" source="yPFTxuTIG4OnFBLkoGiK-108" target="yPFTxuTIG4OnFBLkoGiK-77">
          <mxGeometry relative="1" as="geometry" />
        </mxCell>
        <mxCell id="yPFTxuTIG4OnFBLkoGiK-108" value="class HandlerBase" style="swimlane;fontStyle=2;align=center;verticalAlign=top;childLayout=stackLayout;horizontal=1;startSize=26;horizontalStack=0;resizeParent=1;resizeLast=0;collapsible=1;marginBottom=0;rounded=0;shadow=0;strokeWidth=1;" vertex="1" parent="WIyWlLk6GJQsqaUBKTNV-1">
          <mxGeometry x="-40" y="-678" width="300" height="118" as="geometry">
            <mxRectangle x="230" y="140" width="160" height="26" as="alternateBounds" />
          </mxGeometry>
        </mxCell>
        <mxCell id="yPFTxuTIG4OnFBLkoGiK-112" value="# NextHandler  :  IHandler " style="text;align=left;verticalAlign=top;spacingLeft=4;spacingRight=4;overflow=hidden;rotatable=0;points=[[0,0.5],[1,0.5]];portConstraint=eastwest;" vertex="1" parent="yPFTxuTIG4OnFBLkoGiK-108">
          <mxGeometry y="26" width="300" height="26" as="geometry" />
        </mxCell>
        <mxCell id="yPFTxuTIG4OnFBLkoGiK-109" value="" style="line;html=1;strokeWidth=1;align=left;verticalAlign=middle;spacingTop=-1;spacingLeft=3;spacingRight=3;rotatable=0;labelPosition=right;points=[];portConstraint=eastwest;" vertex="1" parent="yPFTxuTIG4OnFBLkoGiK-108">
          <mxGeometry y="52" width="300" height="8" as="geometry" />
        </mxCell>
        <mxCell id="yPFTxuTIG4OnFBLkoGiK-110" value="+ SetNextHandler(next : IHandler) : IHandler " style="text;align=left;verticalAlign=top;spacingLeft=4;spacingRight=4;overflow=hidden;rotatable=0;points=[[0,0.5],[1,0.5]];portConstraint=eastwest;" vertex="1" parent="yPFTxuTIG4OnFBLkoGiK-108">
          <mxGeometry y="60" width="300" height="26" as="geometry" />
        </mxCell>
        <mxCell id="yPFTxuTIG4OnFBLkoGiK-114" value="+ Handle(request : IRequest ) : IResponse " style="text;align=left;verticalAlign=top;spacingLeft=4;spacingRight=4;overflow=hidden;rotatable=0;points=[[0,0.5],[1,0.5]];portConstraint=eastwest;" vertex="1" parent="yPFTxuTIG4OnFBLkoGiK-108">
          <mxGeometry y="86" width="300" height="26" as="geometry" />
        </mxCell>
        <mxCell id="yPFTxuTIG4OnFBLkoGiK-113" style="edgeStyle=orthogonalEdgeStyle;rounded=0;orthogonalLoop=1;jettySize=auto;html=1;exitX=0;exitY=0.5;exitDx=0;exitDy=0;entryX=0.5;entryY=0;entryDx=0;entryDy=0;startArrow=diamondThin;startFill=0;endArrow=block;endFill=0;endSize=15;startSize=20;" edge="1" parent="WIyWlLk6GJQsqaUBKTNV-1" source="yPFTxuTIG4OnFBLkoGiK-112" target="yPFTxuTIG4OnFBLkoGiK-77">
          <mxGeometry relative="1" as="geometry">
            <Array as="points">
              <mxPoint x="-70" y="-639" />
              <mxPoint x="-70" y="-880" />
              <mxPoint x="110" y="-880" />
            </Array>
          </mxGeometry>
        </mxCell>
        <mxCell id="yPFTxuTIG4OnFBLkoGiK-136" style="edgeStyle=orthogonalEdgeStyle;rounded=0;orthogonalLoop=1;jettySize=auto;html=1;exitX=0.5;exitY=0;exitDx=0;exitDy=0;entryX=0.25;entryY=1;entryDx=0;entryDy=0;endSize=15;endArrow=block;endFill=0;" edge="1" parent="WIyWlLk6GJQsqaUBKTNV-1" source="yPFTxuTIG4OnFBLkoGiK-116" target="yPFTxuTIG4OnFBLkoGiK-108">
          <mxGeometry relative="1" as="geometry" />
        </mxCell>
        <mxCell id="yPFTxuTIG4OnFBLkoGiK-116" value="class PizzaHandler" style="swimlane;fontStyle=2;align=center;verticalAlign=top;childLayout=stackLayout;horizontal=1;startSize=26;horizontalStack=0;resizeParent=1;resizeLast=0;collapsible=1;marginBottom=0;rounded=0;shadow=0;strokeWidth=1;" vertex="1" parent="WIyWlLk6GJQsqaUBKTNV-1">
          <mxGeometry x="-430" y="-470" width="300" height="138" as="geometry">
            <mxRectangle x="230" y="140" width="160" height="26" as="alternateBounds" />
          </mxGeometry>
        </mxCell>
        <mxCell id="yPFTxuTIG4OnFBLkoGiK-117" value="# NextHandler  :  IHandler " style="text;align=left;verticalAlign=top;spacingLeft=4;spacingRight=4;overflow=hidden;rotatable=0;points=[[0,0.5],[1,0.5]];portConstraint=eastwest;" vertex="1" parent="yPFTxuTIG4OnFBLkoGiK-116">
          <mxGeometry y="26" width="300" height="26" as="geometry" />
        </mxCell>
        <mxCell id="yPFTxuTIG4OnFBLkoGiK-121" value="+&lt;&lt;get&gt;&gt; -&lt;&lt;set&gt;&gt; Cook:  PizzaCook " style="text;align=left;verticalAlign=top;spacingLeft=4;spacingRight=4;overflow=hidden;rotatable=0;points=[[0,0.5],[1,0.5]];portConstraint=eastwest;" vertex="1" parent="yPFTxuTIG4OnFBLkoGiK-116">
          <mxGeometry y="52" width="300" height="26" as="geometry" />
        </mxCell>
        <mxCell id="yPFTxuTIG4OnFBLkoGiK-118" value="" style="line;html=1;strokeWidth=1;align=left;verticalAlign=middle;spacingTop=-1;spacingLeft=3;spacingRight=3;rotatable=0;labelPosition=right;points=[];portConstraint=eastwest;" vertex="1" parent="yPFTxuTIG4OnFBLkoGiK-116">
          <mxGeometry y="78" width="300" height="8" as="geometry" />
        </mxCell>
        <mxCell id="yPFTxuTIG4OnFBLkoGiK-119" value="+ SetNextHandler(next : IHandler) : IHandler " style="text;align=left;verticalAlign=top;spacingLeft=4;spacingRight=4;overflow=hidden;rotatable=0;points=[[0,0.5],[1,0.5]];portConstraint=eastwest;" vertex="1" parent="yPFTxuTIG4OnFBLkoGiK-116">
          <mxGeometry y="86" width="300" height="26" as="geometry" />
        </mxCell>
        <mxCell id="yPFTxuTIG4OnFBLkoGiK-120" value="+ Handle(request : IRequest ) : IResponse " style="text;align=left;verticalAlign=top;spacingLeft=4;spacingRight=4;overflow=hidden;rotatable=0;points=[[0,0.5],[1,0.5]];portConstraint=eastwest;" vertex="1" parent="yPFTxuTIG4OnFBLkoGiK-116">
          <mxGeometry y="112" width="300" height="26" as="geometry" />
        </mxCell>
        <mxCell id="yPFTxuTIG4OnFBLkoGiK-134" style="edgeStyle=orthogonalEdgeStyle;rounded=0;orthogonalLoop=1;jettySize=auto;html=1;exitX=0.5;exitY=0;exitDx=0;exitDy=0;entryX=0.5;entryY=1;entryDx=0;entryDy=0;endSize=15;endArrow=block;endFill=0;" edge="1" parent="WIyWlLk6GJQsqaUBKTNV-1" source="yPFTxuTIG4OnFBLkoGiK-122" target="yPFTxuTIG4OnFBLkoGiK-108">
          <mxGeometry relative="1" as="geometry" />
        </mxCell>
        <mxCell id="yPFTxuTIG4OnFBLkoGiK-122" value="class DrinkHandler" style="swimlane;fontStyle=2;align=center;verticalAlign=top;childLayout=stackLayout;horizontal=1;startSize=26;horizontalStack=0;resizeParent=1;resizeLast=0;collapsible=1;marginBottom=0;rounded=0;shadow=0;strokeWidth=1;" vertex="1" parent="WIyWlLk6GJQsqaUBKTNV-1">
          <mxGeometry x="-40" y="-470" width="300" height="138" as="geometry">
            <mxRectangle x="230" y="140" width="160" height="26" as="alternateBounds" />
          </mxGeometry>
        </mxCell>
        <mxCell id="yPFTxuTIG4OnFBLkoGiK-123" value="# NextHandler  :  IHandler " style="text;align=left;verticalAlign=top;spacingLeft=4;spacingRight=4;overflow=hidden;rotatable=0;points=[[0,0.5],[1,0.5]];portConstraint=eastwest;" vertex="1" parent="yPFTxuTIG4OnFBLkoGiK-122">
          <mxGeometry y="26" width="300" height="26" as="geometry" />
        </mxCell>
        <mxCell id="yPFTxuTIG4OnFBLkoGiK-124" value="+&lt;&lt;get&gt;&gt; -&lt;&lt;set&gt;&gt; Cook:  DrinkCook " style="text;align=left;verticalAlign=top;spacingLeft=4;spacingRight=4;overflow=hidden;rotatable=0;points=[[0,0.5],[1,0.5]];portConstraint=eastwest;" vertex="1" parent="yPFTxuTIG4OnFBLkoGiK-122">
          <mxGeometry y="52" width="300" height="26" as="geometry" />
        </mxCell>
        <mxCell id="yPFTxuTIG4OnFBLkoGiK-125" value="" style="line;html=1;strokeWidth=1;align=left;verticalAlign=middle;spacingTop=-1;spacingLeft=3;spacingRight=3;rotatable=0;labelPosition=right;points=[];portConstraint=eastwest;" vertex="1" parent="yPFTxuTIG4OnFBLkoGiK-122">
          <mxGeometry y="78" width="300" height="8" as="geometry" />
        </mxCell>
        <mxCell id="yPFTxuTIG4OnFBLkoGiK-126" value="+ SetNextHandler(next : IHandler) : IHandler " style="text;align=left;verticalAlign=top;spacingLeft=4;spacingRight=4;overflow=hidden;rotatable=0;points=[[0,0.5],[1,0.5]];portConstraint=eastwest;" vertex="1" parent="yPFTxuTIG4OnFBLkoGiK-122">
          <mxGeometry y="86" width="300" height="26" as="geometry" />
        </mxCell>
        <mxCell id="yPFTxuTIG4OnFBLkoGiK-127" value="+ Handle(request : IRequest ) : IResponse " style="text;align=left;verticalAlign=top;spacingLeft=4;spacingRight=4;overflow=hidden;rotatable=0;points=[[0,0.5],[1,0.5]];portConstraint=eastwest;" vertex="1" parent="yPFTxuTIG4OnFBLkoGiK-122">
          <mxGeometry y="112" width="300" height="26" as="geometry" />
        </mxCell>
        <mxCell id="yPFTxuTIG4OnFBLkoGiK-135" style="edgeStyle=orthogonalEdgeStyle;rounded=0;orthogonalLoop=1;jettySize=auto;html=1;exitX=0.5;exitY=0;exitDx=0;exitDy=0;entryX=0.75;entryY=1;entryDx=0;entryDy=0;endArrow=block;endFill=0;endSize=15;" edge="1" parent="WIyWlLk6GJQsqaUBKTNV-1" source="yPFTxuTIG4OnFBLkoGiK-128" target="yPFTxuTIG4OnFBLkoGiK-108">
          <mxGeometry relative="1" as="geometry" />
        </mxCell>
        <mxCell id="yPFTxuTIG4OnFBLkoGiK-128" value="class DessertHandler" style="swimlane;fontStyle=2;align=center;verticalAlign=top;childLayout=stackLayout;horizontal=1;startSize=26;horizontalStack=0;resizeParent=1;resizeLast=0;collapsible=1;marginBottom=0;rounded=0;shadow=0;strokeWidth=1;" vertex="1" parent="WIyWlLk6GJQsqaUBKTNV-1">
          <mxGeometry x="340" y="-470" width="300" height="138" as="geometry">
            <mxRectangle x="230" y="140" width="160" height="26" as="alternateBounds" />
          </mxGeometry>
        </mxCell>
        <mxCell id="yPFTxuTIG4OnFBLkoGiK-129" value="# NextHandler  :  IHandler " style="text;align=left;verticalAlign=top;spacingLeft=4;spacingRight=4;overflow=hidden;rotatable=0;points=[[0,0.5],[1,0.5]];portConstraint=eastwest;" vertex="1" parent="yPFTxuTIG4OnFBLkoGiK-128">
          <mxGeometry y="26" width="300" height="26" as="geometry" />
        </mxCell>
        <mxCell id="yPFTxuTIG4OnFBLkoGiK-130" value="+&lt;&lt;get&gt;&gt; -&lt;&lt;set&gt;&gt; Cook:  DessertCook " style="text;align=left;verticalAlign=top;spacingLeft=4;spacingRight=4;overflow=hidden;rotatable=0;points=[[0,0.5],[1,0.5]];portConstraint=eastwest;" vertex="1" parent="yPFTxuTIG4OnFBLkoGiK-128">
          <mxGeometry y="52" width="300" height="26" as="geometry" />
        </mxCell>
        <mxCell id="yPFTxuTIG4OnFBLkoGiK-131" value="" style="line;html=1;strokeWidth=1;align=left;verticalAlign=middle;spacingTop=-1;spacingLeft=3;spacingRight=3;rotatable=0;labelPosition=right;points=[];portConstraint=eastwest;" vertex="1" parent="yPFTxuTIG4OnFBLkoGiK-128">
          <mxGeometry y="78" width="300" height="8" as="geometry" />
        </mxCell>
        <mxCell id="yPFTxuTIG4OnFBLkoGiK-132" value="+ SetNextHandler(next : IHandler) : IHandler " style="text;align=left;verticalAlign=top;spacingLeft=4;spacingRight=4;overflow=hidden;rotatable=0;points=[[0,0.5],[1,0.5]];portConstraint=eastwest;" vertex="1" parent="yPFTxuTIG4OnFBLkoGiK-128">
          <mxGeometry y="86" width="300" height="26" as="geometry" />
        </mxCell>
        <mxCell id="yPFTxuTIG4OnFBLkoGiK-133" value="+ Handle(request : IRequest ) : IResponse " style="text;align=left;verticalAlign=top;spacingLeft=4;spacingRight=4;overflow=hidden;rotatable=0;points=[[0,0.5],[1,0.5]];portConstraint=eastwest;" vertex="1" parent="yPFTxuTIG4OnFBLkoGiK-128">
          <mxGeometry y="112" width="300" height="26" as="geometry" />
        </mxCell>
        <mxCell id="yPFTxuTIG4OnFBLkoGiK-141" style="edgeStyle=orthogonalEdgeStyle;rounded=0;orthogonalLoop=1;jettySize=auto;html=1;exitX=1;exitY=0.5;exitDx=0;exitDy=0;endArrow=diamondThin;endFill=0;endSize=20;" edge="1" parent="WIyWlLk6GJQsqaUBKTNV-1" source="yPFTxuTIG4OnFBLkoGiK-102" target="yPFTxuTIG4OnFBLkoGiK-114">
          <mxGeometry relative="1" as="geometry" />
        </mxCell>
      </root>
    </mxGraphModel>
  </diagram>
</mxfile>
